<?xml version="1.0" standalone="no"?>
<!DOCTYPE svg PUBLIC "-//W3C//DTD SVG 20010904//EN"
 "http://www.w3.org/TR/2001/REC-SVG-20010904/DTD/svg10.dtd">
<svg version="1.0" xmlns="http://www.w3.org/2000/svg"
 width="1280.000000pt" height="1183.000000pt" viewBox="0 0 1280.000000 1183.000000"
 preserveAspectRatio="xMidYMid meet">
<g transform="translate(0.000000,1183.000000) scale(0.100000,-0.100000)"
fill="#000000" stroke="none">
<path d="M384 11806 c-150 -54 -234 -162 -242 -311 -3 -69 7 -140 78 -510 44
-236 103 -548 130 -692 28 -145 72 -381 100 -525 180 -957 242 -1287 246
-1313 4 -23 -9 -56 -56 -145 -337 -629 -552 -1351 -610 -2050 -6 -74 -15 -179
-20 -233 -13 -125 -13 -333 0 -450 5 -51 14 -155 20 -232 48 -601 217 -1231
481 -1796 404 -863 1018 -1611 1814 -2209 1010 -759 2239 -1213 3545 -1310 80
-6 200 -15 268 -20 156 -13 375 -13 516 0 61 5 181 14 266 20 2042 144 3899
1191 4965 2800 504 761 812 1633 885 2510 6 69 15 181 21 250 32 348 -42 1031
-160 1493 -104 404 -274 851 -442 1163 -27 50 -49 101 -49 113 0 17 273 1472
501 2676 69 363 72 413 25 508 -32 65 -109 141 -174 169 -69 31 -182 36 -252
10 -30 -11 -406 -183 -835 -382 -1413 -656 -1487 -690 -1497 -690 -6 0 -65 31
-132 69 -1672 946 -3751 1138 -5602 516 -374 -126 -796 -311 -1096 -481 -43
-24 -86 -44 -97 -44 -11 0 -546 244 -1188 541 -642 298 -1193 550 -1223 560
-70 24 -110 22 -186 -5z"/>
</g>
</svg>
