<?xml version="1.0" standalone="no"?>
<!DOCTYPE svg PUBLIC "-//W3C//DTD SVG 20010904//EN"
 "http://www.w3.org/TR/2001/REC-SVG-20010904/DTD/svg10.dtd">
<svg version="1.0" xmlns="http://www.w3.org/2000/svg"
 width="1280.000000pt" height="1223.000000pt" viewBox="0 0 1280.000000 1223.000000"
 preserveAspectRatio="xMidYMid meet">
<g transform="translate(0.000000,1223.000000) scale(0.100000,-0.100000)"
fill="#000000" stroke="none">
<path d="M6505 12210 c-44 -11 -93 -17 -109 -14 l-28 6 7 -51 c6 -41 4 -51 -8
-51 -33 0 -45 -163 -23 -320 23 -163 21 -250 -5 -284 -11 -14 -27 -26 -35 -26
-19 0 -18 -14 6 -60 11 -22 20 -49 20 -60 0 -17 -4 -20 -22 -15 -58 18 -136
69 -171 112 -21 26 -122 119 -225 207 -271 231 -384 319 -392 307 -4 -7 -58
21 -146 75 -201 124 -281 167 -296 158 -7 -5 -40 -11 -73 -15 -40 -5 -64 -13
-73 -26 -19 -25 -9 -90 23 -153 14 -27 24 -50 21 -50 -2 0 -22 25 -45 55 -39
52 -71 71 -71 42 0 -19 47 -154 130 -372 70 -184 72 -194 87 -340 9 -82 16
-244 16 -360 1 -198 -1 -226 -41 -490 -24 -154 -58 -372 -77 -485 -19 -113
-41 -252 -50 -310 -8 -58 -20 -118 -27 -133 -7 -17 -51 -59 -110 -104 -55 -41
-143 -116 -196 -167 -133 -126 -196 -179 -507 -431 -619 -500 -785 -676 -934
-985 -47 -97 -183 -477 -246 -685 -36 -117 -60 -164 -163 -315 -137 -202 -219
-306 -293 -372 -109 -98 -287 -227 -416 -303 -148 -87 -509 -330 -713 -480
-249 -183 -772 -506 -988 -610 -133 -65 -192 -100 -274 -163 l-58 -45 0 -56
c0 -79 34 -234 65 -296 33 -69 176 -284 206 -312 13 -11 49 -34 79 -50 l55
-29 105 -211 c58 -116 122 -234 143 -261 78 -105 192 -191 387 -295 125 -66
211 -87 362 -87 132 0 142 -3 164 -52 31 -69 127 -139 290 -209 107 -47 141
-50 262 -23 244 53 894 223 1281 335 757 220 1000 279 1187 287 190 7 315 -23
539 -133 249 -122 353 -202 705 -540 271 -260 327 -293 413 -248 82 42 157 35
283 -27 232 -114 620 -473 870 -805 78 -103 156 -219 181 -270 34 -67 89 -230
147 -435 30 -107 80 -285 111 -395 66 -233 137 -455 207 -645 28 -74 51 -136
52 -138 2 -1 61 20 132 47 1091 417 2077 1108 2840 1991 1124 1299 1734 2943
1734 4669 0 344 -56 1025 -87 1051 -9 8 -2262 997 -2453 1077 -23 10 -265 244
-690 667 -360 359 -855 850 -1101 1092 -245 241 -603 601 -796 799 l-351 360
-338 235 c-232 160 -348 235 -369 237 -16 1 -66 -7 -110 -17z"/>
</g>
</svg>
